<?xml version="1.0" encoding="iso-8859-1"?>
<!-- Generator: Adobe Illustrator 18.1.1, SVG Export Plug-In . SVG Version: 6.00 Build 0)  -->
<svg version="1.1" id="Capa_1" xmlns="http://www.w3.org/2000/svg" xmlns:xlink="http://www.w3.org/1999/xlink" x="0px" y="0px"
	 viewBox="0 0 27.496 27.496" style="enable-background:new 0 0 27.496 27.496;" xml:space="preserve">
<g>
	<g id="c122_arrow">
		<path style="fill:#030104;" d="M27.496,13.747c0-7.591-6.154-13.746-13.748-13.746C6.156,0.001,0,6.156,0,13.747
			c0,7.595,6.156,13.748,13.748,13.748C21.342,27.495,27.496,21.342,27.496,13.747z M13.457,22.492L5.485,10.009
			c-0.053-0.068-0.082-0.15-0.082-0.232l0.036-0.166C5.5,9.483,5.633,9.399,5.776,9.399h15.942c0.144,0,0.276,0.084,0.338,0.212
			c0.064,0.132,0.048,0.285-0.04,0.397l-7.972,12.483c-0.072,0.09-0.18,0.146-0.295,0.146
			C13.637,22.638,13.529,22.582,13.457,22.492z"/>
	</g>
</g>
<g>
</g>
<g>
</g>
<g>
</g>
<g>
</g>
<g>
</g>
<g>
</g>
<g>
</g>
<g>
</g>
<g>
</g>
<g>
</g>
<g>
</g>
<g>
</g>
<g>
</g>
<g>
</g>
<g>
</g>
</svg>
